<svg xmlns="http://www.w3.org/2000/svg" version="1.1" xmlns:xlink="http://www.w3.org/1999/xlink" xmlns:svgjs="http://svgjs.dev/svgjs" width="128" height="128" viewBox="0 0 128 128"><g transform="matrix(0.44782608695652176,0,0,0.44782608695652176,35.339226276730436,12.5)"><svg viewBox="0 0 125 225" data-background-color="#1f2d5a" preserveAspectRatio="xMidYMid meet" height="230" width="128" xmlns="http://www.w3.org/2000/svg" xmlns:xlink="http://www.w3.org/1999/xlink"><g id="tight-bounds" transform="matrix(1,0,0,1,-0.00020899999999812735,0)"><svg viewBox="0 0 125 225" height="225" width="125"><g><svg></svg></g><g><svg viewBox="0 0 125 225" height="225" width="125"><g><path transform="translate(-29.29403,21.95688) scale(1.81951,1.81951)" d="M20.6 59.9l0.8 1-0.4-1.3c-0.1-0.6-0.8 0.1-0.4 0.3M21.5 59.3c0.3 0.5 0.6 1 0.6 1.5 0 0.7 0.6 1 1.1 1.2-0.7-0.8-1.1-3-1.7-2.7M59.9 16.9c1.7 0 3.3-0.2 5.1 0.2 4.4 1.1 8.1 3.3 10.6 6.4l7 11.2c0.3 2.8 0.9 5.9 0.8 9.3 0.7 0 0.6-1 1.4-1.2-0.8 2-1.2 4.5-1.4 7.4-0.5-1.6 0-4 0.1-5.3-0.7 1.1-1.1 0.3-1.1-0.2 0.1-0.8-0.3-0.7-0.6-1-1.1-1-1.8-2.1-2.6-3.8 0.5-1.3 0.6-3.2-1-4.2-0.5-0.3-1.1-0.8-1.4-1.6-0.4-1.1-1.1-2.4-0.9-4.1 0.1-0.5-1.5 1.1-2.4 0.4-3.9-2.7-7.8-5.8-12.5-8.4-2.5 0-4.3-0.9-5.2-2-0.8-1-0.2-2.3 1-2.4 0.7 0 1.5-0.2 2.1 0.2 0.1-0.4 0.5-0.9 1-0.9M50 14.6l0.2 0.1c1 0.2 1.5 1.6 2.6 1.1 0 0.7 0.1 1.4-0.1 1.9-0.3 0.8-1.2 0.8-1.9 0.8-6.7-0.4-10.6 2.4-14.7 4.8-1.1 0.7-2.3 1.2-3.2 2.1-4.3 4-9 7.7-10.1 15.1l-0.9 8.2c-0.1 0.9-1.1 1.8-0.9 2.9l0.7 4.9c-0.7-0.7-1.1 0.2-0.9 0.6 0.1 0.3 0.5 1.3 1.1 0.4 0.8 1.5 1.6 4.4 2.7 5.7 3.4 4 7.8 7.6 11.4 11.2 0.9-0.2 1.6-0.2 1.8-0.8 0.3 0.6-0.3 1.2-0.8 1.3 1.6 1 3.4 1.9 5.8 2.1 3.1 0.2 6 0.7 8.7 1.4 1.4-0.4 2.8-0.6 4.3-0.7 0.5 0 0.8-0.8 1.4-1l0.1-1c0.6 0.9 0.5-0.3 0.1-0.9 0.7 0.6 0.9 1.1 1.2 1.5 0-0.3 0.8-1.4 0.8-0.1l0.2-1.3c0.3-0.2 0.4 1.1 0.7 0.2 0.3-0.9 0.9-0.2 1.5-0.5-0.2 0.4-0.1 1.2 0.6 0.7l0.8-0.7c0.5 1.2 1.3 0.7 1.7 0.5 4.4-2.8 8.8-6.1 13-9.4l-0.1 1.3 0.5-1.6c0.5 0.5 0.9 0.1 1.1-0.2 0.6-1 1.4-2 2.7-2.9-1.6 4.3-3.5 7.7-5.9 10.5l-1 1.2c0 0.7-0.2 1.6-1 1.7-0.4 0.1-1.2-0.2-1.8 0.4-0.3 0.4 0.7 1.2-0.1 0.6-0.7-0.5-1.4 0-2.2 0.2-0.6 0.2 0.4 0.8 0.6 1.2 0.2 0.4 0.4 0.8 0.3 1.3l-1.1-1.2c-1.3 0.7-2.1 2-3.2 3-0.5 0.4-0.3 1.1-0.3 1.7-0.7 0-1.5-0.2-1.9 0.2-0.3 0.4-0.2 1-0.2 1.6-1-0.1-1.1-1.6-2-1.3-0.9 0.2-1.9 0.3-2.7 0.8 0.6 1.2-1 0.5-0.8 0.7-1.5-0.9-2.8-1.6-4.4-1-3.4-1.1-7.6-0.6-10.7-0.2 0-0.5 0.1-1-0.1-1.1-0.2 0.5-0.8 0.3-0.7 0.3-1.9-1.3-3.8-2.1-5.8-3.2-1.8 0.2-3.5-0.7-4-1.2-1.4-1.3-3-0.6-4.3-0.9-2.8-0.7-3.8-3.6-4.1-5.6-0.2-1-1-1.4-1.3-1.3-1.3-4.2-3.3-8-4.9-11.9-0.4-1-0.3-2-0.3-3.1 0.5 0.2 1 0.1 0.9-0.6-0.5-3.3-1.7-5.8-3-8.2 0.7-3.4 0.8-7.4 2.4-10.4 1.4-2.7 4-4.1 5.8-6.4 0.6-0.8 0.6-1.9 1.2-2.6 2-2 4-4.1 6.2-5.9 1-0.8 2.2 0 3.7-0.3 0.5-1.8 2.5-3.4 4.4-2.9 0.8 0.2 2.4-1.9 2.9-2.1 0.8-0.3 0.4 0.8 0.4 1.5 1.9-1.5 4.5-2.3 6.9-3.2" fill="#fbfbfb" fill-rule="nonzero" stroke="none" stroke-width="1" stroke-linecap="butt" stroke-linejoin="miter" stroke-miterlimit="10" stroke-dasharray="" stroke-dashoffset="0" font-family="none" font-weight="none" font-size="none" text-anchor="none" style="mix-blend-mode: normal" data-fill-palette-color="tertiary"></path></g><g transform="matrix(1,0,0,1,48.17785,103.67948120517187)"><svg viewBox="0 0 28.6443 17.64103758965628" height="17.64103758965628" width="28.6443"><g><svg viewBox="0 0 28.6443 17.64103758965628" height="17.64103758965628" width="28.6443"><g><svg viewBox="0 0 28.6443 17.64103758965628" height="17.64103758965628" width="28.6443"><g id="textblocktransform"><svg viewBox="0 0 28.6443 17.64103758965628" height="17.64103758965628" width="28.6443" id="textblock"><g><svg viewBox="0 0 28.6443 17.64103758965628" height="17.64103758965628" width="28.6443"><g><svg viewBox="0 0 28.6443 17.64103758965628" height="17.64103758965628" width="28.6443"><g><svg xmlns="http://www.w3.org/2000/svg" xmlns:xlink="http://www.w3.org/1999/xlink" version="1.1" x="0" y="0" viewBox="0.10330785303381634 19.425 50.29669214696618 30.976000000000003" enable-background="new 0 0 50.4 50.4" xml:space="preserve" width="28.6443" height="17.64103758965628" class="icon-icon-0" data-fill-palette-color="accent" id="icon-0"><g fill="#2f76db" data-fill-palette-color="accent"><path d="M47.802 41.557c-0.849-1.603-1.454-2.27-2.332-3.156-1.718-1.728-3.045-3.366-3.865-3.793-0.814-0.422-1.301-0.383-1.301-0.383s-0.364-0.232-0.313-0.678c0.064-0.554 0.936-1.114 0.936-1.114s-0.177-1.032-0.068-1.689c0.109-0.656 0.806-2.983 0.391-5.032-0.374-1.842-1.311-2.267-1.811-2.926-0.296-0.388-0.797-1.3-1.457-1.771-2.866-2.051-5.581-1.147-6.366-0.86-1.392 0.509-3.562 0.938-4.083 1.919-0.362 0.681 0.361 1.159 0.361 1.159s-0.955 2.828-0.988 3.15c-0.054 0.518 0.403 0.714 0.459 1.046 0.115 0.695-0.972 2.003-1.537 2.862-0.216 0.327-0.236 0.496-0.194 0.692 0.124 0.569 1.234 0.28 1.421 0.739 0.093 0.231-0.257 0.762-0.18 0.98 0.076 0.22 0.563 0.331 0.563 0.331s-0.386 0.322-0.307 0.606c0.081 0.287 0.684 0.383 0.724 0.791 0.038 0.409-0.796 1.411 0.177 1.983 1.1 0.646 2.845-0.283 3.32-0.135 0.699 0.217 0.332 0.999 0.466 1.429 0.144 0.454 0.663 1.222 0.663 1.222s-1.504 3.376-1.914 5.078c-0.274 1.146-0.452 2.64-0.585 3.233-0.076 0.35-0.341 1.283-0.562 2.045h-3.765c-0.486-0.389-1.055-0.79-1.574-1.02-1.001-0.441-2.514-0.194-2.514-0.194s-0.877-1.028-2.409-1.01c-2.133 0.024-3.973 1.274-5.066 2.224H2.756c-0.016 0-0.031 0.002-0.046 0.002-0.004 0-0.602 0.03-1.109-0.415-0.541-0.475-0.355-1.112-0.343-1.402 1.537-5.246 5.086-13.567 5.52-14.395 0.164-0.278 0.534-0.536 0.863-0.658 1.698 8.412 3.463 11.235 3.463 11.235l1.391-0.289L7.536 19.425l-1.391 0.289c0 0-0.245 3.521 1.263 11.449-0.599 0.247-1.041 0.627-1.412 1.044-0.433 0.484-3.893 8.428-5.821 15.015-0.01 0.036-0.018 0.074-0.021 0.11-0.01 0.135-0.269 1.246 0.488 2.173 0.623 0.76 1.642 0.896 2.014 0.896 0.052 0 0.092-0.002 0.117-0.003h27.438v-0.002H50.4C49.878 47.498 49.138 44.074 47.802 41.557z" fill="#2f76db" data-fill-palette-color="accent"></path></g></svg></g></svg></g></svg></g></svg></g></svg></g><g></g></svg></g></svg></g></svg></g><defs></defs></svg><rect width="125" height="225" fill="none" stroke="none" visibility="hidden"></rect></g></svg></g></svg>