<svg xmlns="http://www.w3.org/2000/svg" version="1.1" xmlns:xlink="http://www.w3.org/1999/xlink" xmlns:svgjs="http://svgjs.dev/svgjs" width="2000" height="1500" viewBox="0 0 2000 1500"><rect width="2000" height="1500" fill="#ffffff"></rect><g transform="matrix(0.4444444444444444,0,0,0.4444444444444444,555.5555555555557,250)"><svg viewBox="0 0 320 360" data-background-color="#ffffff" preserveAspectRatio="xMidYMid meet" height="2250" width="2000" xmlns="http://www.w3.org/2000/svg" xmlns:xlink="http://www.w3.org/1999/xlink"><g id="tight-bounds" transform="matrix(1,0,0,1,0,0)"><svg viewBox="0 0 320 360" height="360" width="320"><g><svg></svg></g><g><svg viewBox="0 0 320 360" height="360" width="320"><g><path xmlns="http://www.w3.org/2000/svg" d="M20.961 227.22l3.726 4.658-1.863-6.056c-0.466-2.795-3.726 0.466-1.863 1.398M25.153 224.425c1.397 2.329 2.795 4.658 2.795 6.987 0 3.261 2.795 4.658 5.123 5.589-3.261-3.726-5.124-13.974-7.918-12.576M204.017 26.929c7.918 0 15.371-0.932 23.756 0.931 20.495 5.124 37.729 15.371 49.374 29.811l32.606 52.169c1.397 13.042 4.192 27.482 3.726 43.319 3.261 0 2.795-4.658 6.521-5.59-3.726 9.316-5.59 20.961-6.521 34.469-2.329-7.453 0-18.632 0.466-24.687-3.261 5.124-5.124 1.397-5.124-0.932 0.466-3.726-1.397-3.261-2.795-4.658-5.124-4.658-8.384-9.782-12.11-17.7 2.329-6.055 2.795-14.905-4.658-19.563-2.329-1.397-5.124-3.726-6.521-7.453-1.863-5.124-5.124-11.179-4.193-19.097 0.466-2.329-6.987 5.124-11.179 1.863-18.166-12.576-36.332-27.016-58.224-39.127-11.645 0-20.029-4.192-24.221-9.316-3.726-4.658-0.932-10.713 4.658-11.179 3.261 0 6.987-0.932 9.782 0.932 0.466-1.863 2.329-4.192 4.657-4.192M157.904 16.215l0.932 0.466c4.658 0.932 6.987 7.453 12.11 5.124 0 3.261 0.466 6.521-0.466 8.85-1.397 3.726-5.59 3.726-8.85 3.726-31.208-1.863-49.374 11.179-68.471 22.358-5.124 3.261-10.713 5.59-14.906 9.782-20.029 18.632-41.921 35.866-47.045 70.335l-4.192 38.195c-0.466 4.192-5.124 8.384-4.192 13.508l3.26 22.824c-3.261-3.261-5.124 0.932-4.192 2.795 0.466 1.397 2.329 6.055 5.124 1.863 3.726 6.987 7.453 20.495 12.576 26.55 15.837 18.632 36.332 35.4 53.101 52.169 4.192-0.932 7.453-0.932 8.384-3.727 1.397 2.795-1.397 5.59-3.726 6.056 7.453 4.658 15.837 8.85 27.016 9.781 14.44 0.932 27.948 3.261 40.524 6.522 6.521-1.863 13.042-2.795 20.029-3.261 2.329 0 3.726-3.726 6.521-4.658l0.466-4.658c2.795 4.192 2.329-1.397 0.466-4.192 3.261 2.795 4.192 5.124 5.589 6.987 0-1.397 3.726-6.521 3.727-0.466l0.931-6.055c1.397-0.932 1.863 5.124 3.261 0.931 1.397-4.192 4.192-0.932 6.987-2.329-0.932 1.863-0.466 5.59 2.794 3.261l3.727-3.261c2.329 5.59 6.055 3.261 7.918 2.329 20.495-13.042 40.99-28.413 60.553-43.784l-0.466 6.055 2.329-7.453c2.329 2.329 4.192 0.466 5.124-0.931 2.795-4.658 6.521-9.316 12.577-13.508-7.453 20.029-16.303 35.866-27.482 48.908l-4.658 5.59c0 3.261-0.932 7.453-4.658 7.918-1.863 0.466-5.59-0.932-8.384 1.863-1.397 1.863 3.261 5.59-0.466 2.795-3.261-2.329-6.521 0-10.248 0.932-2.795 0.932 1.863 3.726 2.795 5.589 0.932 1.863 1.863 3.726 1.398 6.056l-5.124-5.59c-6.055 3.261-9.782 9.316-14.906 13.974-2.329 1.863-1.397 5.124-1.397 7.918-3.261 0-6.987-0.932-8.85 0.932-1.397 1.863-0.932 4.658-0.932 7.453-4.658-0.466-5.124-7.453-9.315-6.056-4.192 0.932-8.85 1.397-12.577 3.727 2.795 5.59-4.658 2.329-3.726 3.26-6.987-4.192-13.042-7.453-20.495-4.658-15.837-5.124-35.4-2.795-49.84-0.931 0-2.329 0.466-4.658-0.466-5.124-0.932 2.329-3.726 1.397-3.26 1.397-8.85-6.055-17.7-9.782-27.016-14.905-8.384 0.932-16.303-3.261-18.632-5.59-6.521-6.055-13.974-2.795-20.029-4.192-13.042-3.261-17.7-16.769-19.098-26.084-0.932-4.658-4.658-6.521-6.055-6.056-6.055-19.563-15.371-37.263-22.824-55.429-1.863-4.658-1.397-9.316-1.397-14.44 2.329 0.932 4.658 0.466 4.192-2.794-2.329-15.371-7.918-27.016-13.974-38.195 3.261-15.837 3.726-34.469 11.179-48.443 6.521-12.576 18.632-19.098 27.016-29.811 2.795-3.726 2.795-8.85 5.59-12.11 9.316-9.316 18.632-19.098 28.879-27.482 4.658-3.726 10.247 0 17.234-1.397 2.329-8.384 11.645-15.837 20.495-13.508 3.726 0.932 11.179-8.85 13.508-9.782 3.726-1.397 1.863 3.726 1.863 6.987 8.85-6.987 20.961-10.713 32.14-14.906" fill="#ed2647" fill-rule="nonzero" stroke="none" stroke-width="1" stroke-linecap="butt" stroke-linejoin="miter" stroke-miterlimit="10" stroke-dasharray="" stroke-dashoffset="0" font-family="none" font-weight="none" font-size="none" text-anchor="none" style="mix-blend-mode: normal" data-fill-palette-color="tertiary"></path></g><g transform="matrix(1,0,0,1,64,96.33717292189006)"><svg viewBox="0 0 192 167.32565415621988" height="167.32565415621988" width="192"><g><svg viewBox="0 0 192 167.32565415621988" height="167.32565415621988" width="192"><g><svg viewBox="0 0 192 167.32565415621988" height="167.32565415621988" width="192"><g transform="matrix(1,0,0,1,0,101.13471876567021)"><svg viewBox="0 0 192 66.19093539054967" height="66.19093539054967" width="192"><g id="textblocktransform"><svg viewBox="0 0 192 66.19093539054967" height="66.19093539054967" width="192" id="textblock"><g><svg viewBox="0 0 192 66.19093539054967" height="66.19093539054967" width="192"><g transform="matrix(1,0,0,1,0,0)"><svg width="192" viewBox="2.5 -35.45000076293945 103.69000244140625 35.75" height="66.19093539054967" data-palette-color="#ed2647"><path d="M17.3 0.3L17.3 0.3Q10.15 0.3 6.33-4.53 2.5-9.35 2.5-17.6 2.5-25.85 6.55-30.65 10.6-35.45 17.85-35.45L17.85-35.45Q21.85-35.45 25.7-34L25.7-34 24.8-30.9Q21.75-32.2 17.6-32.2L17.6-32.2Q12.35-32.2 9.3-28.38 6.25-24.55 6.25-17.88 6.25-11.2 9.13-7.08 12-2.95 17.15-2.95L17.15-2.95Q20.55-2.95 25.7-4.9L25.7-4.9 26.7-2.3Q22.4 0.3 17.3 0.3ZM36.8 0L33.05 0 33.05-25 36.8-25 36.8 0ZM33.05-35L36.8-35 36.8-30.55 33.05-30.55 33.05-35ZM43.3-1.65L44.2-4.45Q47.45-2.95 50.4-2.95 53.35-2.95 54.87-4.13 56.4-5.3 56.4-7.25 56.4-9.2 55.1-10.28 53.8-11.35 51.92-11.95 50.05-12.55 48.17-13.25 46.3-13.95 45-15.35 43.7-16.75 43.7-18.9L43.7-18.9Q43.7-22.05 45.75-23.78 47.8-25.5 51.3-25.5 54.8-25.5 57.8-24.45L57.8-24.45 58.15-24.3 57.5-21.1Q54.5-22.25 51.92-22.25 49.35-22.25 48.4-21.45 47.45-20.65 47.45-18.75L47.45-18.75Q47.45-17.55 48.75-16.7 50.05-15.85 51.92-15.23 53.8-14.6 55.67-13.78 57.55-12.95 58.85-11.3 60.15-9.65 60.15-7.25L60.15-7.25Q60.15-3.75 57.7-1.73 55.25 0.3 50.95 0.3 46.65 0.3 43.3-1.65L43.3-1.65ZM65.09-1.65L65.99-4.45Q69.24-2.95 72.19-2.95 75.14-2.95 76.67-4.13 78.19-5.3 78.19-7.25 78.19-9.2 76.89-10.28 75.59-11.35 73.72-11.95 71.84-12.55 69.97-13.25 68.09-13.95 66.79-15.35 65.49-16.75 65.49-18.9L65.49-18.9Q65.49-22.05 67.54-23.78 69.59-25.5 73.09-25.5 76.59-25.5 79.59-24.45L79.59-24.45 79.94-24.3 79.29-21.1Q76.29-22.25 73.72-22.25 71.14-22.25 70.19-21.45 69.24-20.65 69.24-18.75L69.24-18.75Q69.24-17.55 70.54-16.7 71.84-15.85 73.72-15.23 75.59-14.6 77.47-13.78 79.34-12.95 80.64-11.3 81.94-9.65 81.94-7.25L81.94-7.25Q81.94-3.75 79.49-1.73 77.04 0.3 72.74 0.3 68.44 0.3 65.09-1.65L65.09-1.65ZM106.09-11.7L106.09-11.7 90.14-11.7Q90.14-6.9 92.42-4.9 94.69-2.9 98.14-2.9L98.14-2.9Q99.89-2.9 100.59-3.08 101.29-3.25 101.92-3.43 102.54-3.6 102.79-3.7L102.79-3.7Q104.04-4.05 104.94-4.35L104.94-4.35 105.54-1.45Q100.54 0.3 97.74 0.3L97.74 0.3Q92.59 0.3 89.49-2.83 86.39-5.95 86.39-12.23 86.39-18.5 89.32-22 92.24-25.5 96.72-25.5 101.19-25.5 103.69-22.6 106.19-19.7 106.19-14.75L106.19-14.75Q106.19-13.4 106.09-11.7ZM90.39-14.55L90.39-14.55 102.59-14.55Q102.59-18.25 101.29-20.25 99.99-22.25 96.77-22.25 93.54-22.25 92.04-20.1 90.54-17.95 90.39-14.55Z" opacity="1" transform="matrix(1,0,0,1,0,0)" fill="#ed2647" class="wordmark-text-0" data-fill-palette-color="primary" id="text-0"></path></svg></g></svg></g></svg></g></svg></g><g transform="matrix(1,0,0,1,60.60878217743141,0)"><svg viewBox="0 0 70.78243564513718 91.47587270973965" height="91.47587270973965" width="70.78243564513718"><g><svg xmlns="http://www.w3.org/2000/svg" xmlns:xlink="http://www.w3.org/1999/xlink" version="1.1" x="0" y="0" viewBox="12.982999801635742 1 75.68599700927734 97.81300354003906" enable-background="new 0 0 100 100" xml:space="preserve" height="91.47587270973965" width="70.78243564513718" class="icon-icon-0" data-fill-palette-color="accent" id="icon-0"><g fill="#ca3433" data-fill-palette-color="accent"><polygon fill-rule="evenodd" clip-rule="evenodd" points="12.983,10.59 30.001,98.813 24.129,39.764 53.15,37.872 53.096,27.989    64.549,1 53.622,18.977  " fill="#ca3433" data-fill-palette-color="accent"></polygon><polygon fill-rule="evenodd" clip-rule="evenodd" points="59.389,54.548 64.549,1.007 55.809,40.723 36.197,41.768 37.767,62.23    30.001,98.813 42.058,58.914  " fill="#ca3433" data-fill-palette-color="accent"></polygon><polygon fill-rule="evenodd" clip-rule="evenodd" points="62.8,67.182 63.349,56.729 47.37,60.484 47.338,72.281 30.001,98.813    51.681,71.197  " fill="#ca3433" data-fill-palette-color="accent"></polygon><polygon fill-rule="evenodd" clip-rule="evenodd" points="65.711,62.394 80.552,57.663 82.061,45.131 66.162,47.226  " fill="#ca3433" data-fill-palette-color="accent"></polygon><polygon fill-rule="evenodd" clip-rule="evenodd" points="72.07,44.502 83.058,43.085 84.639,32.807 76.56,32.434 64.549,1    72.979,31.967  " fill="#ca3433" data-fill-palette-color="accent"></polygon><polygon fill-rule="evenodd" clip-rule="evenodd" points="87.413,31.294 88.669,21.788 79.125,19.094 64.549,1 79.032,23.437    78.61,30.437  " fill="#ca3433" data-fill-palette-color="accent"></polygon></g></svg></g></svg></g><g></g></svg></g></svg></g></svg></g></svg></g><defs></defs></svg><rect width="320" height="360" fill="none" stroke="none" visibility="hidden"></rect></g></svg></g></svg>