<?xml version="1.0" standalone="no"?>
<!DOCTYPE svg PUBLIC "-//W3C//DTD SVG 20010904//EN"
 "http://www.w3.org/TR/2001/REC-SVG-20010904/DTD/svg10.dtd">
<svg version="1.0" xmlns="http://www.w3.org/2000/svg"
 width="2000.000000pt" height="1500.000000pt" viewBox="0 0 2000.000000 1500.000000"
 preserveAspectRatio="xMidYMid meet">

<g transform="translate(0.000000,1500.000000) scale(0.100000,-0.100000)"
fill="#000000" stroke="none">
<path d="M0 7500 l0 -7500 10000 0 10000 0 0 7500 0 7500 -10000 0 -10000 0 0
-7500z m9986 4529 c26 -11 78 -44 114 -74 78 -64 112 -79 163 -71 l37 6 0
-105 c0 -114 -11 -155 -51 -191 -44 -39 -88 -45 -351 -48 -277 -3 -383 -15
-598 -67 -264 -65 -566 -201 -940 -425 -107 -64 -265 -157 -350 -207 -195
-114 -201 -118 -457 -354 -258 -237 -499 -482 -612 -623 -264 -328 -431 -683
-506 -1072 -7 -40 -41 -325 -75 -633 l-61 -560 -54 -115 c-29 -63 -56 -128
-60 -145 -4 -17 13 -165 41 -362 26 -183 44 -336 41 -340 -4 -4 -13 -1 -19 5
-30 30 -80 4 -93 -48 -8 -35 27 -114 60 -136 25 -16 27 -16 56 5 17 13 32 21
34 19 10 -12 46 -93 116 -265 99 -244 156 -361 211 -434 127 -169 456 -501
938 -949 157 -145 346 -324 420 -396 74 -72 140 -130 145 -128 6 1 46 10 89
19 60 13 87 24 107 45 31 31 39 29 39 -9 0 -35 -32 -80 -74 -106 l-36 -22 73
-41 c263 -150 453 -208 762 -232 283 -22 579 -69 874 -136 85 -20 166 -34 180
-31 14 3 80 16 146 31 66 14 187 32 269 41 82 8 157 21 165 27 9 7 39 34 68
60 28 26 57 48 62 48 6 0 11 12 11 28 0 15 3 44 6 65 l7 38 23 -22 c26 -24 28
-21 24 36 -1 17 -8 46 -16 65 l-15 35 32 -30 c17 -17 51 -59 74 -93 36 -54 44
-61 49 -44 9 27 52 72 70 72 8 0 19 -12 24 -27 9 -25 10 -22 17 33 9 76 21 97
38 70 7 -10 19 -28 28 -39 16 -21 17 -20 40 28 l24 50 83 3 84 3 -7 -30 c-8
-39 9 -71 39 -71 14 0 50 21 87 52 58 49 63 51 73 33 6 -11 23 -32 38 -47 32
-34 83 -37 143 -9 150 69 1047 708 1565 1115 74 58 138 106 142 106 3 0 4 -28
2 -62 l-4 -63 26 80 c15 44 27 81 28 82 1 2 16 -2 32 -9 55 -20 78 -5 146 94
71 104 173 216 252 277 29 23 55 41 59 41 14 0 -140 -364 -231 -545 -160 -322
-311 -550 -559 -848 -82 -97 -91 -114 -97 -160 -9 -67 -40 -130 -74 -153 -20
-13 -55 -20 -129 -24 -82 -5 -108 -10 -130 -26 -34 -26 -39 -53 -18 -94 l16
-32 -44 26 c-25 15 -59 26 -80 26 -38 0 -193 -45 -214 -62 -16 -13 -4 -37 47
-92 48 -52 79 -113 87 -171 6 -45 -7 -61 -24 -31 -4 8 -34 42 -66 75 l-59 61
-61 -44 c-34 -24 -135 -120 -224 -214 -178 -187 -169 -171 -163 -295 l2 -59
-78 7 c-50 5 -95 3 -121 -4 -58 -16 -73 -47 -73 -151 0 -57 -4 -80 -12 -80
-27 0 -77 40 -123 99 -27 35 -59 64 -73 68 -30 7 -246 -37 -322 -66 -80 -31
-83 -33 -70 -65 7 -19 7 -33 -1 -48 -10 -18 -17 -20 -70 -15 -39 5 -74 16
-106 36 -171 105 -328 142 -458 107 -42 -11 -58 -11 -95 0 -95 29 -257 54
-416 66 -189 14 -459 2 -739 -32 -88 -11 -166 -20 -172 -20 -9 0 -13 20 -13
65 0 66 -7 78 -30 50 -19 -23 -67 -18 -113 13 -78 53 -231 139 -467 262 -217
113 -239 122 -286 121 -161 -6 -335 54 -480 165 -108 83 -154 96 -374 104
-192 7 -215 12 -317 64 -60 30 -158 118 -207 185 -79 107 -136 250 -176 441
-12 57 -30 109 -45 133 -28 41 -78 77 -110 77 -17 0 -28 22 -67 139 -78 231
-142 387 -370 901 -250 561 -258 585 -258 783 l0 117 39 -6 c32 -5 43 -2 61
16 20 20 22 29 16 79 -28 242 -161 627 -326 937 l-59 111 34 209 c18 115 48
298 65 408 65 411 140 634 283 849 62 94 171 208 478 502 177 169 228 236 265
347 52 161 61 172 346 453 351 348 534 512 601 540 40 16 128 19 249 6 42 -5
99 -6 126 -3 48 4 50 6 63 45 35 105 149 234 258 290 92 48 155 61 259 53 84
-7 88 -6 132 22 25 16 96 77 159 135 62 59 117 107 121 107 5 0 15 3 23 6 8 3
22 -2 31 -12 14 -14 16 -29 10 -100 l-7 -84 84 56 c85 57 205 121 319 169 71
30 471 183 482 184 3 1 28 -8 54 -20z m1742 -279 c267 -29 664 -178 955 -358
154 -95 286 -201 422 -337 l130 -131 461 -740 461 -739 42 -345 c48 -401 61
-556 61 -726 0 -96 3 -124 13 -124 20 0 41 20 76 72 29 43 66 78 82 78 4 0
-11 -55 -33 -122 -60 -189 -101 -420 -134 -753 -6 -62 -8 -67 -17 -45 -7 15
-11 97 -11 200 0 152 6 239 30 403 l6 37 -30 -30 c-61 -61 -112 -24 -112 80 0
44 -4 55 -27 73 -128 103 -252 261 -344 440 -43 84 -43 85 -31 135 62 240 14
395 -158 512 -104 71 -139 120 -203 290 -61 159 -80 244 -81 352 -1 54 -2 98
-3 98 -1 0 -38 -18 -83 -40 -90 -43 -151 -57 -190 -42 -14 5 -201 135 -415
288 -610 436 -823 578 -1111 744 -93 54 -130 70 -160 70 -63 0 -223 27 -299
50 -158 49 -320 161 -364 253 -26 53 -26 109 -2 162 35 78 84 101 231 110 83
6 114 4 150 -9 24 -8 45 -14 45 -13 7 19 54 78 69 88 38 25 402 37 574 19z
m-3778 -4435 c0 -20 -5 -25 -25 -25 -20 0 -25 5 -25 25 0 20 5 25 25 25 20 0
25 -5 25 -25z m2930 0 c0 -20 -5 -25 -25 -25 -20 0 -25 5 -25 25 0 20 5 25 25
25 20 0 25 -5 25 -25z m-3255 -6 c73 -20 135 -106 135 -186 0 -18 -6 -23 -25
-23 -21 0 -25 5 -25 30 0 103 -97 167 -211 140 -92 -22 -121 -83 -121 -255 0
-134 19 -191 74 -225 42 -25 135 -27 184 -4 40 19 74 77 74 124 0 25 4 30 25
30 21 0 25 -5 25 -27 -1 -38 -24 -100 -47 -125 -30 -34 -102 -61 -163 -61
-164 0 -226 93 -218 322 6 166 41 231 138 259 48 14 107 14 155 1z m2185 -19
c0 -19 -7 -20 -100 -20 l-100 0 0 -270 c0 -263 0 -270 -20 -270 -20 0 -20 7
-20 270 l0 270 -100 0 c-93 0 -100 1 -100 20 0 19 7 20 220 20 213 0 220 -1
220 -20z m-1450 -138 c36 -19 77 -83 65 -102 -13 -22 -41 -10 -50 22 -13 42
-45 58 -116 58 -72 0 -109 -25 -109 -75 0 -42 21 -55 137 -83 101 -24 129 -41
144 -91 10 -33 9 -45 -7 -78 -26 -52 -77 -76 -163 -76 -74 0 -117 17 -150 59
-28 35 -28 84 -1 84 13 0 20 -7 20 -19 0 -35 41 -70 92 -80 97 -17 168 16 168
79 0 41 -37 65 -128 85 -42 10 -89 24 -104 31 -83 43 -73 150 17 190 45 20
144 18 185 -4z m443 2 c42 -21 67 -53 67 -86 0 -41 -33 -38 -45 4 -12 41 -45
58 -112 58 -65 0 -99 -15 -111 -49 -20 -58 7 -77 160 -116 91 -23 118 -49 118
-113 0 -87 -54 -126 -176 -125 -67 1 -111 19 -143 59 -28 35 -28 84 -1 84 13
0 20 -7 20 -19 0 -70 124 -107 223 -66 43 18 50 84 12 113 -14 11 -60 28 -103
37 -89 20 -125 36 -146 67 -36 50 -7 125 58 154 43 19 140 17 179 -2z m441 2
c55 -23 87 -75 94 -151 l5 -65 -152 0 -151 0 0 -37 c0 -44 28 -95 64 -118 59
-39 169 -7 182 53 10 48 13 52 34 52 25 0 26 -22 1 -76 -25 -56 -77 -87 -145
-87 -86 0 -147 46 -171 127 -60 202 74 371 239 302z m841 0 c57 -24 65 -54 65
-231 0 -164 -1 -159 48 -155 35 3 24 -32 -13 -42 -39 -10 -75 13 -75 49 l0 27
-27 -26 c-43 -40 -73 -51 -135 -51 -89 0 -131 38 -131 120 0 87 53 122 198
132 86 6 90 7 93 31 6 41 -16 96 -43 108 -72 33 -177 1 -190 -57 -9 -42 -45
-44 -45 -2 0 35 33 79 74 97 41 18 138 18 181 0z m516 -8 c61 -34 69 -62 69
-252 0 -159 -1 -166 -20 -166 -19 0 -20 7 -20 153 0 125 -3 158 -18 187 -30
60 -106 79 -169 40 -55 -33 -63 -61 -63 -230 0 -151 0 -151 -22 -148 -23 3
-23 4 -26 216 -2 207 -2 212 18 212 15 0 20 -7 20 -26 l0 -25 29 20 c66 47
140 54 202 19z m712 -16 c30 -29 33 -30 44 -13 34 55 159 67 210 20 46 -43 53
-75 53 -249 0 -150 -1 -160 -19 -160 -17 0 -19 12 -23 165 -4 146 -7 169 -25
193 -43 58 -129 54 -170 -7 -22 -32 -23 -44 -23 -193 l0 -159 -22 3 c-23 3
-23 6 -28 176 l-5 174 -28 24 c-49 42 -127 28 -159 -29 -8 -14 -15 -81 -18
-182 -5 -157 -5 -160 -27 -163 l-23 -3 0 215 c0 184 2 216 15 216 8 0 18 -12
21 -26 6 -25 7 -25 28 -6 39 35 60 43 114 39 43 -3 59 -10 85 -35z m707 18
c25 -13 49 -37 67 -67 25 -42 28 -58 28 -133 0 -72 -4 -92 -25 -129 -14 -24
-37 -53 -51 -63 -56 -42 -151 -42 -208 -1 -60 44 -92 159 -71 257 27 129 149
193 260 136z m-4070 -206 l0 -215 -22 3 c-23 3 -23 4 -26 216 l-2 212 25 0 25
0 0 -216z m2930 0 l0 -215 -22 3 c-23 3 -23 4 -26 216 l-2 212 25 0 25 0 0
-216z m1420 71 c0 -159 10 -201 53 -230 33 -21 95 -22 135 -1 54 28 62 57 62
226 l0 150 25 0 25 0 0 -195 0 -195 30 0 c38 0 41 -26 4 -41 -30 -11 -74 10
-74 36 0 20 -4 19 -50 -11 -51 -34 -131 -37 -182 -8 -59 35 -68 68 -68 252 0
155 1 162 20 162 19 0 20 -7 20 -145z"/>
<path d="M6286 6203 c20 -40 37 -90 41 -121 7 -66 36 -110 92 -141 l44 -24
-26 44 c-13 24 -44 89 -67 144 -47 108 -83 165 -105 165 -11 0 -5 -19 21 -67z"/>
<path d="M6136 6245 c-9 -9 -16 -22 -16 -28 0 -7 25 -43 56 -82 61 -76 62 -73
19 54 -23 70 -34 80 -59 56z"/>
<path d="M9102 7110 c-33 -20 -62 -72 -62 -110 0 -19 6 -20 124 -20 69 0 127
4 130 8 10 17 -13 86 -37 110 -35 35 -110 41 -155 12z"/>
<path d="M9925 6925 c-48 -17 -65 -38 -65 -80 0 -42 19 -65 63 -74 78 -18 157
26 177 98 19 70 18 71 -62 71 -40 -1 -91 -7 -113 -15z"/>
<path d="M11864 7111 c-41 -25 -64 -85 -64 -169 0 -114 46 -174 135 -174 91 0
135 59 135 180 0 87 -19 136 -64 163 -40 24 -102 24 -142 0z"/>
</g>
</svg>
